<?xml version="1.0" encoding="utf-8"?>
<!-- Generator: Adobe Illustrator 17.0.0, SVG Export Plug-In . SVG Version: 6.00 Build 0)  -->
<!DOCTYPE svg PUBLIC "-//W3C//DTD SVG 1.1//EN" "http://www.w3.org/Graphics/SVG/1.1/DTD/svg11.dtd">
<svg version="1.1" id="图层_1" xmlns="http://www.w3.org/2000/svg" xmlns:xlink="http://www.w3.org/1999/xlink" x="0px" y="0px"
	 width="244px" height="80px" viewBox="0 0 244 80" enable-background="new 0 0 244 80" xml:space="preserve">
<g>
	<path fill="#4696F7" d="M38.829,64.656c-6.808-2.107-11.765-8.456-11.765-15.951c0-1.219,0.146-2.403,0.392-3.552
		c0.397-1.654-0.312-3.436-1.861-4.333c-1.885-1.081-4.294-0.437-5.375,1.442c-0.2,0.351-0.339,0.715-0.425,1.087h-0.001
		c0,0.002,0,0.004,0,0.007c-0.001,0.012-0.004,0.021-0.009,0.029c-0.378,1.723-0.592,3.496-0.592,5.321c0,0.335,0.006,0.669,0.018,1
		c-1.103-0.247-2.245-0.378-3.399-0.378c-2.714,0-5.394,0.715-7.754,2.073c-7.409,4.282-9.953,13.79-5.681,21.199
		c2.769,4.786,7.922,7.767,13.452,7.767c2.705,0,5.39-0.722,7.747-2.085c3.408-1.963,5.891-5.076,7.054-8.817
		c1.834,1.165,3.83,2.094,5.95,2.748l0.001-0.01c0.358,0.107,0.737,0.168,1.128,0.168c2.178,0,3.942-1.76,3.942-3.934
		C41.652,66.649,40.459,65.139,38.829,64.656 M23.208,66.821c-0.536,1.974-1.803,3.616-3.561,4.644
		c-1.169,0.67-2.487,1.027-3.819,1.027c-2.732,0-5.265-1.467-6.629-3.823c-2.112-3.66-0.856-8.338,2.797-10.449
		c1.165-0.671,2.483-1.024,3.815-1.024c2.723,0,5.27,1.465,6.628,3.83C23.463,62.792,23.732,64.85,23.208,66.821"/>
	<path fill="#4696F7" d="M86.71,60.832c-1.073-4.01-3.641-7.354-7.233-9.432c-2.353-1.356-5.033-2.073-7.744-2.073
		c-1.156,0-2.295,0.131-3.399,0.378c0.012-0.331,0.021-0.665,0.021-1c0-1.836-0.225-3.621-0.605-5.357l-0.007,0.002
		c-0.085-0.379-0.228-0.753-0.432-1.107c-1.087-1.885-3.494-2.526-5.372-1.442c-1.571,0.903-2.278,2.723-1.84,4.396
		c0.24,1.133,0.377,2.302,0.377,3.507c0,7.509-4.981,13.873-11.809,15.973l0.001,0.008c-1.58,0.51-2.722,1.996-2.722,3.748
		c0,2.174,1.76,3.934,3.931,3.934c0.477,0,0.931-0.089,1.355-0.244c2.021-0.645,3.926-1.543,5.682-2.661
		c1.158,3.741,3.64,6.854,7.052,8.817c2.36,1.364,5.037,2.085,7.749,2.085c5.529,0,10.68-2.981,13.441-7.767
		C87.232,69.009,87.785,64.826,86.71,60.832 M78.339,68.669c-1.358,2.356-3.903,3.823-6.626,3.823c-1.334,0-2.651-0.358-3.816-1.027
		c-1.764-1.027-3.033-2.67-3.561-4.644c-0.527-1.971-0.257-4.029,0.769-5.796c1.36-2.361,3.9-3.83,6.626-3.83
		c1.327,0,2.647,0.354,3.809,1.024c1.768,1.023,3.032,2.677,3.557,4.641C79.629,64.838,79.36,66.894,78.339,68.669"/>
	<path fill="#4696F7" d="M61.272,30.32c-0.215-0.379-0.491-0.704-0.797-0.977c-1.591-1.482-3.375-2.752-5.312-3.779
		c2.556-2.769,4.123-6.466,4.123-10.521C59.29,6.497,52.329-0.466,43.77-0.474c-4.143,0-8.042,1.618-10.975,4.546
		c-2.931,2.933-4.541,6.832-4.541,10.971c0,4.055,1.567,7.752,4.123,10.522c-1.959,1.035-3.766,2.327-5.369,3.825l0.005,0.009
		c-0.275,0.26-0.519,0.56-0.716,0.904c-1.09,1.888-0.446,4.292,1.437,5.381c1.657,0.956,3.711,0.576,4.928-0.807
		c2.956-2.646,6.838-4.265,11.108-4.265c4.332,0,8.264,1.666,11.24,4.38c1.224,1.29,3.215,1.627,4.82,0.702
		C61.712,34.609,62.358,32.199,61.272,30.32 M38.368,9.642c1.444-1.446,3.36-2.242,5.398-2.242c4.217,0.004,7.644,3.432,7.644,7.643
		c0,4.222-3.426,7.642-7.633,7.642H43.77c-4.212,0-7.642-3.42-7.642-7.642C36.129,13.002,36.921,11.091,38.368,9.642"/>
</g>
<g>
	<path fill="#4D4D4D" d="M236.535,48.276L236.535,48.276c-0.084-0.01-0.17-0.017-0.257-0.017h-16.206
		c-0.589,0-1.123-0.205-1.583-0.606c-0.407-0.387-0.589-0.836-0.589-1.455v-9.045c0-0.619,0.502-1.122,1.122-1.122h12.534
		c0.879,0,1.716-0.166,2.419-0.478c1.583-0.631,2.718-1.707,3.28-3.1c0.016-0.04,0.035-0.078,0.056-0.115
		c0.362-0.627,0.546-1.403,0.546-2.306V17.566c0-0.893-0.177-1.645-0.554-2.361c-1.045-2.237-3.301-3.682-5.747-3.682h-11.483
		c-2.485,0-4.766,1.433-5.83,3.661c-0.016,0.033-0.03,0.067-0.043,0.101c-0.324,0.838-0.476,1.564-0.476,2.282v28.631
		c0,0.926,0.243,1.686,0.489,2.314c0.011,0.029,0.023,0.056,0.036,0.084c1.046,2.242,3.327,3.689,5.824,3.689h5.427l0.001,0
		l11.035,0c0.992,0,1.803-0.811,1.803-1.803v-0.403C238.338,49.088,237.527,48.276,236.535,48.276z M219.021,32.093
		c-0.619,0-1.122-0.502-1.122-1.121V17.566c0-0.616,0.182-1.059,0.573-1.397c0.479-0.418,1.002-0.621,1.599-0.621h2.346
		c0.619,0,1.121,0.502,1.121,1.122v14.301c0,0.619-0.502,1.121-1.121,1.121H219.021z M233.681,30.031
		c0,0.542-0.203,1.006-0.635,1.456c-0.429,0.407-0.917,0.605-1.491,0.605h-2.717c-0.619,0-1.122-0.502-1.122-1.121v-13.76
		c0-0.919,0.745-1.663,1.663-1.663h2.176c0.583,0,1.061,0.197,1.509,0.622c0.415,0.359,0.617,0.815,0.617,1.395V30.031z"/>
	<g>
		<path fill="#4D4D4D" d="M166.261,21.279v-4.191c0.076-0.201,0.237-0.359,0.44-0.431h9.439c0.082,0,0.16-0.017,0.234-0.044h12.515
			c0.568,0,1.028-0.46,1.028-1.028v-2.053c0-0.568-0.461-1.029-1.029-1.029h-20.713c-0.143,0-0.284,0.008-0.423,0.02h-2.173l0,0
			h-2.629c-0.375,0-0.682,0.307-0.682,0.682l0,4.479c-0.034,0.298-0.042,0.586-0.042,0.856v27.129c0,0.712,0.056,1.545,0.47,2.329
			c0.005,0.009,0.009,0.018,0.013,0.028c0.561,1.429,1.626,2.505,3.173,3.204c0.541,0.217,1.377,0.475,2.293,0.475h20.714
			c0.568,0,1.028-0.46,1.028-1.028v-2.054c0-0.568-0.46-1.028-1.028-1.028h-20.714c-0.528,0-0.986-0.19-1.361-0.564
			c-0.385-0.386-0.565-0.819-0.565-1.362V26.214c-0.022-0.067-0.037-0.137-0.037-0.211v-4.475
			C166.243,21.451,166.261,21.367,166.261,21.279z"/>
		<path fill="#4D4D4D" d="M154.646,23.963c-0.039-0.058-0.085-0.113-0.143-0.158l-2.712-2.122c-0.295-0.231-0.726-0.179-0.957,0.117
			l-0.903,1.153c-0.005,0.005-0.008,0.011-0.013,0.017l-0.806,1.03c-0.231,0.295-0.178,0.726,0.117,0.957l0.935,0.731
			c0.004,0.004,0.008,0.008,0.012,0.012l1.102,0.904c0.047,0.04,0.095,0.074,0.156,0.116c4.807,3.211,5.387,8.471,1.781,16.064
			l-3.576,6.013c-0.331,0.558-0.374,1.246-0.114,1.84c0.311,0.712,0.995,1.183,1.79,1.23l0.116,0.003
			c0.741,0,1.409-0.377,1.787-1.01l3.643-6.129l0.057-0.11C161.331,35.377,160.562,28.441,154.646,23.963z"/>
		<path fill="#4D4D4D" d="M151.833,18.739h3.7c0.375,0,0.682-0.307,0.682-0.682V12.62c0-0.375-0.307-0.682-0.682-0.682h-3.701
			c-0.375,0-0.682,0.307-0.682,0.682l0,5.437C151.151,18.432,151.458,18.739,151.833,18.739z"/>
	</g>
	<path fill="#4D4D4D" d="M211.981,18.626V13.67c0-0.375-0.307-0.682-0.682-0.682h-2.678h0h-10.907h0h-0.73
		c-0.375,0-0.682,0.307-0.682,0.682v4.931c-0.01,0.132-0.016,0.264-0.016,0.395v25.831c0,0.753,0.167,1.567,0.485,2.36
		c0.695,1.54,1.771,2.6,3.184,3.144c0.693,0.324,1.49,0.488,2.367,0.488H206c0.843,0,1.609-0.156,2.336-0.475
		c1.428-0.569,2.542-1.667,3.224-3.18c0.282-0.704,0.431-1.512,0.431-2.338V18.996C211.992,18.872,211.988,18.749,211.981,18.626z
		 M207.931,26.549c0,0.019-0.004,0.038-0.006,0.057v18.222c0,0.541-0.197,0.984-0.607,1.361c-0.38,0.38-0.811,0.564-1.318,0.564
		l-3.965,0c-0.177,0-0.348-0.044-0.494-0.129c-0.76-0.437-1.146-1.042-1.146-1.797V26.57c-0.001-0.013-0.004-0.025-0.004-0.038
		l0-8.708c0-0.375,0.307-0.682,0.682-0.682h2.678c0.047,0,0.092,0.005,0.136,0.014H206c0.022,0,0.043,0.002,0.064,0.002h1.185
		c0.375,0,0.682,0.307,0.682,0.682L207.931,26.549z"/>
	<g>
		<path fill="#4D4D4D" d="M123.294,31.258c-0.017-0.024-0.036-0.047-0.057-0.067c-0.381-0.382-0.876-0.584-1.432-0.584h-21.046
			c-0.265,0-0.481,0.197-0.481,0.44v2.495c0,0.557,0.493,1.008,1.102,1.008h16.967c0.09,0,0.18,0.023,0.257,0.067
			c0.307,0.176,0.42,0.478,0.314,0.751c-1.237,3.202-3.391,8.735-6.147,11.914c-0.091,0.105-0.23,0.164-0.377,0.164l-1.886-0.002
			l-0.25-0.006c-0.157-0.004-0.302-0.077-0.389-0.197l-2.069-2.862c-0.471-0.652-1.44-0.833-2.153-0.402l-0.919,0.556
			c-0.713,0.431-0.91,1.317-0.439,1.969l1.873,2.591l1.224,1.693c0.166,0.23,0.423,0.374,0.699,0.421
			c0.13,0.022,5.318,0.075,5.318,0.075c0.394-0.004,0.776-0.104,1.106-0.289c0.151-0.085,0.288-0.186,0.406-0.3
			c0.182-0.174,0.51-0.525,0.553-0.567c4.038-3.997,6.887-11.892,8.15-16.899C123.771,32.759,123.669,31.782,123.294,31.258z"/>
		<path fill="#4D4D4D" d="M112.068,32.848L112.068,32.848c-1.158,0-2.105-0.947-2.105-2.105v-3.911c0-1.158,0.947-2.105,2.105-2.105
			l0,0c1.158,0,2.105,0.947,2.105,2.105v3.911C114.173,31.901,113.226,32.848,112.068,32.848z"/>
		<path fill="#4D4D4D" d="M141.365,12.524c0-0.375-0.312-0.682-0.692-0.682h-2.77l-0.002,0h-2.286
			c-0.109-0.007-0.218-0.01-0.325-0.01h-3.165c-0.107,0-0.215,0.004-0.322,0.01h-2.258c-0.001,0-0.001,0-0.002,0h-2.77
			c-0.381,0-0.692,0.307-0.692,0.682l0,6.774c0,0.002,0.001,0.004,0.001,0.006V44.33c-0.011,0.047-0.017,0.096-0.017,0.146l0,6.798
			c0,0.375,0.312,0.682,0.693,0.682h1.124c0.094,0.012,0.189,0.02,0.285,0.02c0.075,0,0.15-0.004,0.226-0.011
			c0.021-0.002,0.041-0.007,0.061-0.009h1.04c0.381,0,0.693-0.307,0.693-0.682v-1.051c0.016-0.099,0.027-0.199,0.027-0.301V19.463
			c0.013-0.053,0.023-0.108,0.023-0.165l0-2.744c0.048-0.33,0.335-0.586,0.682-0.586h0.902c0.099-0.014,0.2-0.022,0.305-0.022h1.433
			c0.058-0.016,0.117-0.027,0.18-0.027h2.758c0.381,0,0.692,0.307,0.692,0.682v1.036c0.008,0.076,0.013,0.154,0.013,0.235v8.951
			c0.021,0.066,0.036,0.134,0.036,0.206l0,6.627c0,0.072-0.015,0.141-0.036,0.206v9.342c0,0.493-0.194,0.946-0.554,1.302
			c-0.473,0.427-0.905,0.626-1.357,0.626h-0.643c-1.098,0-2.061,0.884-2.102,1.929c-0.022,0.563,0.178,1.091,0.564,1.487
			c0.385,0.394,0.91,0.611,1.478,0.611h0.704c0.64,0,1.58-0.05,2.352-0.484c2.277-0.958,3.691-3.053,3.691-5.47v-9.094
			c0-0.804-0.165-1.582-0.489-2.313c-0.25-0.563-0.588-1.093-1.005-1.578c0.965-1.096,1.495-2.491,1.495-3.948v-5.613
			c0.019-0.062,0.032-0.125,0.032-0.193V12.524z"/>
		<path fill="#4D4D4D" d="M124.262,23.58c-0.03-0.093-0.063-0.185-0.105-0.275l-3.217-6.837l-0.001-0.002
			c-0.682-1.411-1.543-2.494-2.559-3.219c-1.058-0.757-2.468-1.141-4.192-1.141h-4.064c-1.664,0-3.044,0.383-4.102,1.14
			c-0.987,0.704-1.86,1.783-2.6,3.211l-0.933,1.957c-0.008,0.014-0.017,0.026-0.024,0.04l-0.263,0.562l-2.049,4.296
			c-0.009,0.019-0.018,0.04-0.025,0.06c-0.027,0.073-0.049,0.147-0.069,0.221l-0.492,1.05c-0.164,0.351-0.012,0.771,0.339,0.936
			l2.538,1.188c0.351,0.164,0.771,0.012,0.936-0.339l1.363-2.91l2.445-5.195c0.292-0.622,0.707-1.146,1.201-1.516
			c0.427-0.321,1.06-0.504,1.737-0.504h4.064c0.757,0,1.323,0.161,1.783,0.505c0.444,0.332,0.838,0.831,1.202,1.518l1.064,2.228
			l2.702,5.79c0.164,0.351,0.585,0.504,0.935,0.34l1.004-0.469c0.102-0.037,0.203-0.081,0.304-0.137
			c0.069-0.029,0.134-0.062,0.198-0.098l1.007-0.47c0.351-0.164,0.504-0.584,0.34-0.935L124.262,23.58z"/>
	</g>
</g>
<g>
	<g>
		<path fill="#4D4D4D" d="M109.312,71.186v1.316h-9.087c-0.164,0-0.297-0.133-0.297-0.297V60.821c0-0.164,0.133-0.297,0.297-0.297
			h1.444c0.164,0,0.297,0.133,0.297,0.297v10.068c0,0.164,0.133,0.297,0.297,0.297H109.312z"/>
		<path fill="#4D4D4D" d="M120.452,72.502h-1.398c-0.164,0-0.297-0.133-0.297-0.297V60.821c0-0.164,0.133-0.297,0.297-0.297h1.398
			c0.164,0,0.297,0.133,0.297,0.297v11.384C120.749,72.369,120.616,72.502,120.452,72.502z"/>
		<path fill="#4D4D4D" d="M143.276,72.502h-1.492c-0.091,0-0.177-0.042-0.233-0.113l-8.131-10.328l0.023,0.79
			c0.024,0.299,0.035,0.55,0.035,0.755v8.6c0,0.164-0.133,0.297-0.297,0.297h-1.013c-0.164,0-0.296-0.133-0.296-0.297V60.821
			c0-0.164,0.133-0.297,0.296-0.297h2.051c0.091,0,0.177,0.042,0.233,0.113l7.595,9.647l-0.023-0.833
			c-0.016-0.327-0.023-0.616-0.023-0.868v-7.762c0-0.164,0.133-0.297,0.297-0.297h0.979c0.164,0,0.297,0.133,0.297,0.297v11.384
			C143.573,72.369,143.44,72.502,143.276,72.502z"/>
		<path fill="#4D4D4D" d="M165.751,72.502h-1.397c-0.164,0-0.297-0.133-0.297-0.297v-5.11c0-0.164-0.133-0.297-0.297-0.297h-6.777
			c-0.164,0-0.297,0.133-0.297,0.297v5.11c0,0.164-0.133,0.297-0.297,0.297h-1.397c-0.164,0-0.297-0.133-0.297-0.297V60.821
			c0-0.164,0.133-0.297,0.297-0.297h1.397c0.164,0,0.297,0.133,0.297,0.297v4.365c0,0.164,0.133,0.297,0.297,0.297h6.777
			c0.164,0,0.297-0.133,0.297-0.297v-4.365c0-0.164,0.133-0.297,0.297-0.297h1.397c0.164,0,0.297,0.133,0.297,0.297v11.384
			C166.048,72.369,165.915,72.502,165.751,72.502z"/>
		<path fill="#4D4D4D" d="M186.525,60.525h1.06c0.164,0,0.297,0.133,0.297,0.297v7.527c0,1.569-0.51,2.694-1.531,3.376
			c-1.021,0.682-2.358,1.023-4.011,1.023c-1.84,0-3.201-0.351-4.086-1.054c-0.885-0.702-1.327-1.817-1.327-3.346v-7.527
			c0-0.164,0.133-0.297,0.296-0.297h1.398c0.164,0,0.297,0.133,0.297,0.297v7.528c0,0.931,0.144,1.587,0.431,1.968
			c0.287,0.38,0.722,0.661,1.304,0.842c0.582,0.182,1.191,0.272,1.828,0.272c1.226,0,2.157-0.243,2.794-0.729
			c0.636-0.486,0.954-1.27,0.954-2.353v-7.528C186.228,60.658,186.361,60.525,186.525,60.525z"/>
		<path fill="#4D4D4D" d="M200.467,72.502h-1.398c-0.164,0-0.297-0.133-0.297-0.297V60.821c0-0.164,0.133-0.297,0.297-0.297h1.398
			c0.164,0,0.297,0.133,0.297,0.297v11.384C200.763,72.369,200.631,72.502,200.467,72.502z"/>
		<path fill="#4D4D4D" d="M211.887,72.205V60.821c0-0.164,0.133-0.297,0.297-0.297h5.99c1.584,0,2.757,0.292,3.522,0.877
			c0.765,0.585,1.147,1.262,1.147,2.034c0,1.099-0.617,1.899-1.852,2.399c-0.263,0.107-0.255,0.466,0.013,0.56
			c0.638,0.221,1.142,0.522,1.513,0.901c0.544,0.556,0.815,1.185,0.815,1.888c0,0.942-0.421,1.731-1.263,2.366
			c-0.842,0.635-2.14,0.953-3.895,0.953h-5.99C212.019,72.502,211.887,72.369,211.887,72.205z M213.807,65.361
			c0,0.164,0.133,0.297,0.297,0.297h3.161c1.436,0,2.394-0.207,2.876-0.619c0.481-0.412,0.721-0.896,0.721-1.452
			c0-0.55-0.258-0.994-0.774-1.334c-0.517-0.339-1.287-0.509-2.311-0.509h-3.674c-0.164,0-0.297,0.133-0.297,0.297V65.361z
			 M213.807,70.889c0,0.164,0.133,0.297,0.297,0.297h3.965c1.04,0,1.843-0.19,2.41-0.571c0.567-0.38,0.85-0.874,0.85-1.483
			c0-0.426-0.128-0.823-0.384-1.189c-0.256-0.365-0.617-0.648-1.082-0.846c-0.466-0.199-1.161-0.298-2.084-0.298h-3.674
			c-0.164,0-0.297,0.133-0.297,0.297V70.889z"/>
		<path fill="#4D4D4D" d="M243.703,72.502h-1.39c-0.116,0-0.222-0.068-0.27-0.173l-1.44-3.154c-0.048-0.106-0.154-0.173-0.27-0.173
			h-5.507c-0.121,0-0.229,0.073-0.275,0.185l-1.272,3.131c-0.045,0.112-0.154,0.185-0.275,0.185h-1.465l5.087-11.798
			c0.047-0.109,0.154-0.179,0.272-0.179h1.863c0.118,0,0.225,0.07,0.272,0.179l4.941,11.384
			C244.06,72.283,243.917,72.502,243.703,72.502z M239.924,67.464l-2.013-4.705c-0.103-0.24-0.443-0.24-0.545,0l-2.009,4.705
			c-0.084,0.196,0.06,0.413,0.273,0.413h4.022C239.864,67.878,240.008,67.66,239.924,67.464z"/>
	</g>
</g>
</svg>
