<?xml version="1.0" encoding="UTF-8"?>
<svg width="326px" height="98px" viewBox="0 0 326 98" version="1.1" xmlns="http://www.w3.org/2000/svg" xmlns:xlink="http://www.w3.org/1999/xlink">
    <!-- Generator: Sketch 49.2 (51160) - http://www.bohemiancoding.com/sketch -->
    <title>three_sevenimage_youhuiquan1</title>
    <desc>Created with Sketch.</desc>
    <defs></defs>
    <g id="image_youhuiquan1" stroke="none" stroke-width="1" fill="none" fill-rule="evenodd">
        <g id="Group-5">
            <path d="M0,43 L0,2 C-1.3527075e-16,0.8954305 0.8954305,2.02906125e-16 2,0 L324,-2.22044605e-16 C325.104569,-4.2495073e-16 326,0.8954305 326,2 L326,43 C322.686292,43 320,45.6862915 320,49 C320,52.3137085 322.686292,55 326,55 L326,96 C326,97.1045695 325.104569,98 324,98 L2,98 C0.8954305,98 1.3527075e-16,97.1045695 0,96 L0,55 C3.3137085,55 6,52.3137085 6,49 C6,45.6862915 3.3137085,43 0,43 Z" id="Combined-Shape" fill="#EDF4FE"></path>
            <path d="M108,92 C106.895431,92 106,92.8954305 106,94 C106,95.1045695 106.895431,96 108,96 L108,98 L2,98 C0.8954305,98 1.3527075e-16,97.1045695 0,96 L0,55 C3.3137085,55 6,52.3137085 6,49 C6,45.6862915 3.3137085,43 0,43 L0,2 C-1.3527075e-16,0.8954305 0.8954305,2.02906125e-16 2,0 L108,0 L108,2 C106.895431,2 106,2.8954305 106,4 C106,5.1045695 106.895431,6 108,6 L108,8 C106.895431,8 106,8.8954305 106,10 C106,11.1045695 106.895431,12 108,12 L108,14 C106.895431,14 106,14.8954305 106,16 C106,17.1045695 106.895431,18 108,18 L108,20 C106.895431,20 106,20.8954305 106,22 C106,23.1045695 106.895431,24 108,24 L108,26 C106.895431,26 106,26.8954305 106,28 C106,29.1045695 106.895431,30 108,30 L108,32 C106.895431,32 106,32.8954305 106,34 C106,35.1045695 106.895431,36 108,36 L108,38 C106.895431,38 106,38.8954305 106,40 C106,41.1045695 106.895431,42 108,42 L108,44 C106.895431,44 106,44.8954305 106,46 C106,47.1045695 106.895431,48 108,48 L108,50 C106.895431,50 106,50.8954305 106,52 C106,53.1045695 106.895431,54 108,54 L108,56 C106.895431,56 106,56.8954305 106,58 C106,59.1045695 106.895431,60 108,60 L108,62 C106.895431,62 106,62.8954305 106,64 C106,65.1045695 106.895431,66 108,66 L108,68 C106.895431,68 106,68.8954305 106,70 C106,71.1045695 106.895431,72 108,72 L108,74 C106.895431,74 106,74.8954305 106,76 C106,77.1045695 106.895431,78 108,78 L108,80 C106.895431,80 106,80.8954305 106,82 C106,83.1045695 106.895431,84 108,84 L108,86 C106.895431,86 106,86.8954305 106,88 C106,89.1045695 106.895431,90 108,90 L108,92 Z" id="Combined-Shape" fill="#4E8CF0"></path>
        </g>
    </g>
</svg>